<?xml version="1.0" encoding="utf-8"?>
<!-- Generator: Adobe Illustrator 23.0.4, SVG Export Plug-In . SVG Version: 6.00 Build 0)  -->
<svg version="1.1" id="Réteg_1" xmlns="http://www.w3.org/2000/svg" xmlns:xlink="http://www.w3.org/1999/xlink" x="0px" y="0px"
	 viewBox="0 0 85 85" style="enable-background:new 0 0 85 85;" xml:space="preserve">
<style type="text/css">
	.st0{fill:#FFFFFF;}
</style>
<g>
	<path class="st0" d="M63.19,25.24c-0.16-0.47-0.36-0.6-0.66-0.72c-0.66-0.25-1.78,0.13-1.78,0.13S21.02,38.92,18.76,40.5
		c-0.49,0.34-0.65,0.54-0.73,0.77c-0.39,1.13,0.83,1.62,0.83,1.62l10.24,3.34c0,0,0.38,0.06,0.52-0.03
		c2.33-1.47,23.43-14.8,24.65-15.25c0.19-0.06,0.33,0.01,0.3,0.14c-0.49,1.71-18.82,18-18.82,18s-0.07,0.09-0.11,0.19l-0.02-0.01
		l-0.96,10.15c0,0-0.4,3.11,2.71,0c2.2-2.2,4.32-4.03,5.38-4.93c3.52,2.43,7.31,5.12,8.94,6.53c0.82,0.71,1.51,0.82,2.07,0.8
		c1.55-0.06,1.99-1.76,1.99-1.76s7.24-29.13,7.48-33.04c0.02-0.38,0.06-0.63,0.06-0.89C63.28,25.77,63.25,25.41,63.19,25.24z"/>
</g>
</svg>
