<?xml version="1.0" encoding="utf-8"?>
<!-- Generator: Adobe Illustrator 23.0.4, SVG Export Plug-In . SVG Version: 6.00 Build 0)  -->
<svg version="1.1" id="Réteg_1" xmlns="http://www.w3.org/2000/svg" xmlns:xlink="http://www.w3.org/1999/xlink" x="0px" y="0px"
	 viewBox="0 0 85 85" style="enable-background:new 0 0 85 85;" xml:space="preserve">
<style type="text/css">
	.st0{fill:#FFFFFF;}
</style>
<g>
	<g>
		<g>
			<path class="st0" d="M45.77,36.7c0.7-0.78,1.27-1.58,1.99-2.26c2.2-2.08,4.81-3.13,7.85-3.1c1.67,0.01,3.33,0.13,4.94,0.6
				c3.69,1.07,5.83,3.61,6.85,7.21c0.77,2.7,0.91,5.48,0.91,8.26c0.01,5.87-0.02,11.74,0,17.61c0,0.55-0.15,0.69-0.69,0.69
				c-3.02-0.03-6.05-0.03-9.07,0c-0.53,0-0.65-0.16-0.65-0.66c0.02-5.59,0.02-11.17,0-16.76c0-1.4-0.09-2.8-0.49-4.16
				c-0.72-2.51-2.52-3.78-5.15-3.65c-3.59,0.19-5.45,1.97-5.91,5.61c-0.11,0.87-0.16,1.74-0.16,2.62c0,5.43-0.01,10.87,0.01,16.3
				c0,0.54-0.13,0.7-0.69,0.7c-3.05-0.03-6.09-0.02-9.14,0c-0.49,0-0.63-0.13-0.63-0.62c0.01-10.76,0.01-21.51,0-32.27
				c0-0.53,0.17-0.66,0.68-0.65c2.89,0.02,5.79,0.02,8.68,0c0.53,0,0.67,0.17,0.66,0.67C45.75,34.13,45.77,35.42,45.77,36.7z"/>
			<path class="st0" d="M29.2,48.99c0,5.32-0.01,10.64,0.01,15.96c0,0.59-0.14,0.77-0.76,0.76c-3.02-0.03-6.05-0.03-9.07,0
				c-0.48,0-0.63-0.12-0.63-0.62c0.01-10.77,0.01-21.55,0-32.32c0-0.45,0.11-0.6,0.58-0.6c3.07,0.02,6.13,0.03,9.2,0
				c0.59-0.01,0.67,0.22,0.67,0.73C29.19,38.26,29.2,43.63,29.2,48.99z"/>
			<path class="st0" d="M30.03,21.5c0,3.34-2.71,6.06-6.04,6.06c-3.29,0-6.03-2.72-6.04-6.01c-0.01-3.33,2.72-6.06,6.05-6.06
				C27.31,15.49,30.03,18.21,30.03,21.5z"/>
		</g>
	</g>
</g>
</svg>
