<?xml version="1.0" encoding="utf-8"?>
<!-- Generator: Adobe Illustrator 23.0.4, SVG Export Plug-In . SVG Version: 6.00 Build 0)  -->
<svg version="1.1" id="Réteg_1" xmlns="http://www.w3.org/2000/svg" xmlns:xlink="http://www.w3.org/1999/xlink" x="0px" y="0px"
	 viewBox="0 0 85 85" style="enable-background:new 0 0 85 85;" xml:space="preserve">
<style type="text/css">
	.st0{display:none;fill:#FFFFFF;}
	.st1{fill:#FFFFFF;}
</style>
<g>
	<path class="st0" d="M42.5,7.66c11.35,0,12.69,0.04,17.17,0.25c4.14,0.19,6.39,0.88,7.89,1.46c1.98,0.77,3.4,1.69,4.89,3.18
		c1.49,1.49,2.41,2.9,3.18,4.89c0.58,1.5,1.27,3.75,1.46,7.89c0.2,4.48,0.25,5.83,0.25,17.17s-0.04,12.69-0.25,17.17
		c-0.19,4.14-0.88,6.39-1.46,7.89c-0.77,1.98-1.69,3.4-3.18,4.89c-1.49,1.49-2.9,2.41-4.89,3.18c-1.5,0.58-3.75,1.27-7.89,1.46
		c-4.48,0.2-5.82,0.25-17.17,0.25c-11.35,0-12.69-0.04-17.17-0.25c-4.14-0.19-6.39-0.88-7.89-1.46c-1.98-0.77-3.4-1.69-4.89-3.18
		c-1.49-1.49-2.41-2.9-3.18-4.89c-0.58-1.5-1.27-3.75-1.46-7.89c-0.2-4.48-0.25-5.83-0.25-17.17S7.7,29.81,7.91,25.33
		c0.19-4.14,0.88-6.39,1.46-7.89c0.77-1.98,1.69-3.4,3.18-4.89c1.49-1.49,2.9-2.41,4.89-3.18c1.5-0.58,3.75-1.27,7.89-1.46
		C29.81,7.7,31.15,7.66,42.5,7.66 M42.5,0C30.96,0,29.51,0.05,24.98,0.26c-4.52,0.21-7.61,0.92-10.32,1.98
		c-2.79,1.09-5.16,2.54-7.53,4.9c-2.36,2.36-3.82,4.73-4.9,7.53c-1.05,2.7-1.77,5.79-1.98,10.32C0.05,29.51,0,30.96,0,42.5
		c0,11.54,0.05,12.99,0.26,17.52c0.21,4.52,0.92,7.61,1.98,10.32c1.09,2.79,2.54,5.16,4.9,7.53c2.36,2.36,4.73,3.82,7.53,4.9
		c2.7,1.05,5.79,1.77,10.32,1.98C29.51,84.95,30.96,85,42.5,85c11.54,0,12.99-0.05,17.52-0.26c4.52-0.21,7.61-0.92,10.32-1.98
		c2.79-1.09,5.16-2.54,7.53-4.9c2.36-2.36,3.82-4.73,4.9-7.53c1.05-2.7,1.77-5.79,1.98-10.32C84.95,55.49,85,54.04,85,42.5
		s-0.05-12.99-0.26-17.52c-0.21-4.52-0.92-7.61-1.98-10.32c-1.09-2.79-2.54-5.16-4.9-7.53c-2.36-2.36-4.73-3.82-7.53-4.9
		c-2.7-1.05-5.79-1.77-10.32-1.98C55.49,0.05,54.04,0,42.5,0L42.5,0z"/>
	<path class="st1" d="M42.5,20.68c-12.05,0-21.82,9.77-21.82,21.82s9.77,21.82,21.82,21.82c12.05,0,21.82-9.77,21.82-21.82
		S54.55,20.68,42.5,20.68z M42.5,56.67c-7.82,0-14.17-6.34-14.17-14.17s6.34-14.17,14.17-14.17s14.17,6.34,14.17,14.17
		S50.32,56.67,42.5,56.67z"/>
	<circle class="st1" cx="65.19" cy="19.81" r="5.1"/>
</g>
</svg>
